<?xml version="1.0" standalone="no"?>
<!DOCTYPE svg PUBLIC "-//W3C//DTD SVG 20010904//EN"
 "http://www.w3.org/TR/2001/REC-SVG-20010904/DTD/svg10.dtd">
<svg version="1.0" xmlns="http://www.w3.org/2000/svg"
 width="2000.000000pt" height="2000.000000pt" viewBox="0 0 2000.000000 2000.000000"
 preserveAspectRatio="xMidYMid meet">

<g transform="translate(0.000000,2000.000000) scale(0.100000,-0.100000)"
fill="#000000" stroke="none">
<path d="M9760 15160 c-15 -15 -34 -20 -72 -20 -55 0 -119 -24 -165 -60 -24
-18 -40 -20 -214 -20 -369 0 -762 27 -968 66 -75 14 -146 22 -162 19 -44 -10
-66 -47 -110 -189 -23 -72 -50 -148 -61 -169 -10 -21 -88 -130 -173 -242 -187
-247 -243 -332 -284 -429 -42 -101 -48 -159 -61 -551 -10 -331 -26 -669 -35
-750 -17 -152 -28 -215 -39 -215 -6 0 -54 12 -106 26 -224 62 -323 21 -351
-147 -11 -67 -10 -96 7 -230 10 -85 19 -201 19 -259 -1 -159 -25 -218 -167
-410 -107 -144 -138 -207 -138 -283 0 -134 84 -212 278 -258 129 -31 337 -19
453 26 12 5 18 -2 23 -26 12 -60 6 -563 -10 -808 -25 -402 -46 -501 -154 -727
-53 -111 -142 -264 -155 -264 -7 0 -112 222 -217 460 l-91 205 12 117 c13 121
10 175 -16 237 -27 64 -123 230 -313 541 -103 168 -227 383 -275 479 l-87 175
16 87 c24 131 21 172 -28 341 -25 84 -43 154 -42 156 6 6 66 -95 80 -134 8
-23 19 -73 25 -112 15 -99 24 -118 82 -171 42 -39 52 -56 60 -96 5 -27 16 -56
24 -65 8 -9 24 -57 36 -108 24 -107 36 -116 101 -80 61 33 72 68 46 138 -12
30 -22 77 -24 103 -4 63 -30 103 -110 174 -69 60 -87 86 -99 143 l-7 35 33
-31 c95 -87 174 -116 319 -118 l105 0 101 66 c118 77 131 99 103 162 -21 46
-59 42 -123 -14 -19 -17 -40 -29 -45 -25 -6 3 -30 -4 -53 -16 -31 -16 -60 -22
-104 -22 -112 1 -212 64 -345 220 -106 124 -162 176 -223 209 -61 33 -62 34
-70 94 -9 70 -41 108 -135 165 -68 41 -105 74 -206 185 -164 180 -441 453
-485 476 -32 18 -60 19 -355 19 -176 0 -331 -3 -345 -7 -35 -10 -78 -53 -188
-192 l-94 -119 -172 -82 c-106 -51 -181 -93 -196 -111 -32 -37 -76 -118 -148
-269 -31 -66 -99 -205 -150 -310 -153 -309 -136 -214 -143 -785 -4 -332 -10
-527 -19 -592 l-14 -97 39 -98 c21 -54 61 -163 88 -243 l51 -145 3 -150 c2
-82 10 -440 18 -795 10 -400 12 -646 6 -648 -5 -2 -42 -26 -83 -55 -266 -186
-476 -545 -564 -960 -63 -301 -33 -759 72 -1107 37 -122 147 -391 201 -489
198 -363 478 -626 773 -724 130 -43 188 -52 345 -51 160 0 252 14 387 60 39
13 72 23 73 21 1 -1 6 -25 13 -52 50 -228 216 -421 471 -550 162 -81 382 -135
551 -135 111 0 277 23 315 42 62 33 105 104 105 175 0 77 -67 176 -148 217
-15 7 -74 30 -132 51 -194 69 -238 102 -260 194 -26 107 53 259 185 358 186
139 381 203 618 203 145 -1 207 -8 480 -57 l209 -38 -6 -35 c-18 -114 -18
-151 -2 -193 48 -126 148 -147 525 -110 l174 17 35 -45 c65 -82 235 -241 340
-319 458 -341 1031 -481 1502 -370 289 69 481 171 660 351 l86 87 152 26 c194
32 308 71 512 172 255 127 483 274 617 397 l44 40 32 -39 c108 -133 243 -244
384 -317 314 -161 583 -221 898 -197 284 21 374 49 605 188 227 136 326 223
457 397 41 55 79 104 83 109 12 12 100 -65 172 -149 32 -38 104 -136 159 -217
125 -183 179 -229 292 -248 49 -8 390 15 582 39 39 5 179 7 313 4 l243 -4 44
25 c82 49 448 449 640 701 38 50 110 133 160 185 103 107 137 168 143 252 5
68 -13 128 -65 213 -133 218 -372 442 -633 593 -55 31 -100 60 -100 63 0 3 23
11 51 17 176 41 392 174 473 291 107 154 32 314 -166 355 l-63 13 -1 809 c-1
445 2 960 6 1144 9 383 4 354 117 653 l67 178 -14 97 c-9 65 -15 259 -19 592
-7 571 10 476 -143 785 -51 105 -119 244 -150 310 -72 151 -116 232 -148 269
-15 18 -87 58 -185 106 -171 82 -187 94 -294 230 -77 96 -140 159 -170 168
-14 4 -170 7 -346 7 -295 0 -323 -1 -355 -19 -44 -23 -321 -296 -485 -476
-101 -111 -138 -144 -206 -185 -94 -57 -126 -95 -135 -165 -8 -60 -9 -61 -70
-94 -61 -33 -117 -85 -223 -209 -133 -156 -233 -219 -345 -220 -44 0 -73 6
-104 22 -23 12 -47 19 -53 16 -5 -4 -26 8 -45 25 -64 56 -102 60 -123 14 -28
-63 -15 -85 103 -162 l101 -66 105 0 c145 2 224 31 319 118 l33 31 -7 -35
c-12 -57 -30 -83 -99 -143 -80 -71 -106 -111 -110 -174 -2 -26 -12 -73 -24
-103 -26 -70 -15 -105 46 -138 65 -36 77 -27 101 80 12 51 28 99 36 108 8 9
19 38 24 65 8 40 18 57 60 96 56 52 65 69 81 161 16 92 38 156 72 211 17 26
32 46 34 45 1 -2 -17 -72 -42 -156 -49 -169 -52 -210 -28 -341 l16 -87 -87
-175 c-48 -96 -172 -311 -275 -479 -201 -329 -288 -479 -316 -550 -21 -51 -24
-137 -10 -274 l9 -88 -49 35 c-27 19 -87 57 -134 85 -136 79 -311 191 -359
230 l-43 35 53 22 c155 63 209 116 209 205 0 98 -46 133 -271 209 -205 68
-268 97 -349 157 -80 61 -137 126 -171 199 -25 52 -29 72 -29 146 0 82 27 209
50 232 4 5 54 -7 111 -27 337 -115 685 -74 790 93 45 71 38 154 -19 215 -26
27 -93 63 -377 204 -236 116 -370 210 -438 308 -42 62 -50 191 -51 884 -1 682
3 646 -81 795 -92 164 -136 258 -218 466 -99 250 -127 335 -161 481 -45 193
-62 212 -179 210 -40 0 -157 -10 -262 -21 -104 -11 -327 -25 -495 -31 -167 -5
-386 -17 -486 -26 l-182 -16 -102 51 c-116 58 -174 67 -210 31z m5302 -1982
c24 -46 44 -86 46 -90 2 -5 -14 -8 -35 -8 -37 0 -39 1 -71 69 -43 89 -74 118
-37 35 14 -32 33 -69 40 -81 14 -21 13 -22 -21 -29 -19 -3 -36 -5 -37 -3 -1 2
-17 35 -35 73 -18 37 -35 66 -38 64 -5 -6 18 -74 40 -115 15 -29 14 -31 -9
-41 -14 -7 -45 -30 -69 -52 -44 -41 -56 -47 -56 -30 0 5 -12 35 -26 65 l-27
56 23 24 c29 31 36 31 44 1 3 -13 15 -43 26 -67 27 -58 20 -12 -8 58 l-21 52
51 43 c49 40 76 50 160 57 13 1 30 -24 60 -81z m89 -13 l57 -95 -37 0 c-35 0
-38 3 -68 63 -18 34 -42 77 -53 95 l-22 32 34 0 c31 0 36 -5 89 -95z m72 27
c41 -73 75 -118 82 -110 3 2 -20 42 -50 88 -30 46 -55 85 -55 87 0 2 16 3 35
3 29 0 37 -5 51 -32 9 -18 36 -64 60 -101 24 -37 44 -70 44 -73 0 -5 -89 2
-141 12 -17 3 -31 17 -43 40 -9 20 -34 62 -56 95 l-39 59 37 0 c35 0 39 -4 75
-68z m256 22 c13 -25 46 -77 72 -117 26 -39 47 -72 46 -73 -1 -1 -19 1 -40 4
-30 3 -41 11 -54 36 -19 38 -107 159 -129 177 -21 17 35 -75 88 -144 36 -49
37 -52 17 -55 -39 -6 -68 8 -85 41 -9 17 -39 65 -65 105 l-49 72 88 0 87 0 24
-46z m103 20 c37 -34 199 -226 194 -231 -3 -3 -40 0 -84 7 l-78 12 -29 56
c-16 31 -49 82 -72 114 -24 32 -43 61 -43 64 0 14 92 -4 112 -22z m-11032 -79
c0 -3 -19 -31 -43 -63 -23 -32 -56 -83 -72 -114 l-29 -56 -78 -12 c-44 -7 -81
-10 -85 -7 -6 7 164 206 201 234 21 17 106 32 106 18z m141 -67 c-26 -40 -56
-88 -65 -105 -17 -33 -46 -47 -86 -41 -21 3 -21 5 13 48 19 25 51 72 72 105
60 95 3 36 -67 -70 -54 -80 -64 -91 -97 -96 -20 -4 -37 -6 -38 -5 -1 1 27 46
63 101 35 55 67 108 70 117 5 15 18 18 95 18 l89 0 -49 -72z m115 50 c-33 -47
-87 -141 -82 -145 4 -5 71 88 98 136 13 24 24 31 48 31 16 0 30 -2 30 -3 0 -2
-22 -41 -49 -86 -27 -45 -51 -87 -53 -92 -3 -10 -156 -34 -165 -26 -2 3 16 36
40 73 24 38 52 84 61 102 14 27 22 32 52 32 36 0 36 0 20 -22z m309 6 c11 -2
41 -23 67 -47 l47 -42 -25 -60 c-13 -33 -23 -67 -21 -75 1 -8 14 15 27 53 14
37 27 67 31 67 3 0 15 -10 27 -23 l22 -23 -27 -65 c-15 -35 -28 -66 -30 -68
-1 -2 -23 15 -48 38 -25 23 -56 46 -69 52 l-24 11 30 65 c40 89 29 105 -13 18
-19 -38 -35 -71 -35 -73 -1 -2 -18 0 -38 3 -33 7 -34 8 -21 29 8 11 26 48 40
81 23 53 23 57 5 36 -11 -13 -33 -50 -48 -82 -26 -56 -29 -59 -64 -59 -21 0
-38 2 -38 4 0 3 15 31 34 63 34 57 57 116 40 100 -5 -5 -29 -45 -54 -90 -43
-78 -47 -82 -83 -85 l-38 -3 25 38 c14 21 40 64 58 96 l33 58 85 -6 c47 -4 94
-8 105 -11z m9631 -132 l30 -67 -155 -170 c-163 -177 -240 -263 -229 -255 4 3
114 111 245 241 224 222 290 278 313 264 6 -3 10 -1 10 6 0 16 231 7 550 -21
129 -11 244 -20 255 -18 11 1 43 -14 70 -34 28 -20 107 -67 177 -103 120 -62
129 -69 163 -123 36 -56 135 -255 314 -627 l91 -190 10 -111 c7 -75 7 -171 0
-290 -13 -236 -13 -406 1 -589 l11 -150 -60 -151 c-114 -284 -113 -281 -123
-654 -4 -179 -13 -404 -18 -500 -13 -217 -13 -719 -1 -900 5 -74 12 -233 16
-352 l7 -218 -58 0 c-65 0 -205 45 -340 110 -184 88 -371 239 -490 394 l-54
72 103 259 c57 143 138 337 179 430 41 94 116 278 167 410 95 249 240 606 405
1000 53 127 103 259 111 295 9 39 17 141 19 255 l4 190 -14 -115 c-20 -164
-35 -259 -47 -305 -6 -22 -69 -163 -140 -313 -143 -302 -250 -550 -328 -753
-28 -74 -62 -156 -75 -184 -12 -27 -114 -279 -225 -560 -112 -280 -206 -514
-210 -519 -5 -4 -34 32 -65 80 -96 150 -132 191 -191 220 -47 23 -64 26 -114
21 -61 -5 -109 -27 -223 -101 -46 -30 -58 -34 -54 -19 3 10 15 74 28 143 l22
125 129 133 c78 80 137 151 148 175 10 23 29 100 41 170 l23 128 47 -6 c98
-14 108 12 149 388 38 341 38 342 0 377 -51 48 -638 290 -775 320 -274 59
-644 130 -682 130 -40 0 -44 -3 -69 -47 -15 -25 -45 -89 -65 -142 -20 -53 -60
-148 -87 -211 -71 -164 -89 -226 -74 -250 7 -11 12 -27 12 -36 0 -23 -92 -135
-148 -181 -42 -35 -187 -102 -197 -91 -2 2 -7 69 -11 148 l-7 145 50 95 c27
52 99 178 160 280 61 102 186 318 278 480 228 400 209 375 292 389 91 16 445
103 439 108 -2 3 -84 -9 -183 -26 -198 -34 -303 -47 -303 -38 0 9 70 137 92
169 10 14 113 104 228 199 116 95 210 177 210 181 0 11 18 22 -238 -140 -117
-74 -226 -148 -242 -164 -16 -16 -46 -58 -66 -94 -20 -36 -38 -63 -40 -61 -2
2 -4 34 -5 73 -1 54 8 100 40 210 22 78 57 220 76 314 20 95 40 181 46 192 12
23 81 24 159 3 30 -8 143 -35 250 -61 107 -26 212 -51 232 -56 48 -11 54 -17
159 -175 49 -73 91 -133 94 -133 12 0 -146 259 -180 295 -37 39 -47 43 -148
65 l-107 23 77 81 c43 45 109 116 147 159 38 43 111 115 162 159 51 44 95 85
97 93 3 7 -47 -27 -112 -75 -93 -69 -144 -118 -249 -238 -125 -142 -159 -169
-194 -158 -7 3 -46 14 -86 26 -67 19 -72 23 -66 43 4 12 8 60 9 106 0 47 5 86
10 88 6 2 10 -14 11 -34 2 -115 4 -129 16 -109 6 11 9 50 6 97 -5 76 -4 79 29
120 l33 42 0 -79 c0 -118 17 -125 25 -11 4 52 4 100 1 106 -4 6 9 27 29 48
l36 38 -6 -52 c-4 -29 -3 -67 1 -85 l8 -33 7 30 c4 17 7 60 8 96 1 52 5 70 20
83 19 18 20 17 27 -43 10 -95 28 -90 21 6 -5 71 -4 83 13 98 18 16 19 15 36
-44 9 -34 20 -64 25 -66 7 -5 -17 110 -27 127 -6 9 23 48 35 48 3 -1 20 -31
37 -68z m-9409 -108 c-19 -54 -28 -106 -18 -100 4 3 16 33 25 67 17 58 18 60
36 44 16 -14 17 -27 12 -97 -6 -96 12 -102 22 -7 7 60 8 61 27 43 15 -13 19
-31 20 -83 1 -36 5 -79 9 -96 l7 -30 8 28 c4 16 5 54 2 84 l-6 56 30 -29 c25
-24 29 -35 29 -79 0 -29 3 -80 6 -114 9 -85 24 -58 24 43 l0 80 32 -42 c31
-40 32 -46 30 -120 -4 -106 13 -127 23 -27 4 42 10 74 13 70 3 -3 7 -45 9 -93
1 -48 4 -96 5 -106 3 -16 -11 -23 -82 -43 -47 -13 -94 -21 -106 -18 -17 4
-161 155 -258 271 -31 38 -267 218 -259 198 3 -7 48 -50 101 -94 53 -45 139
-132 192 -193 54 -62 119 -133 146 -158 l50 -46 -110 -23 c-131 -29 -150 -43
-217 -156 -67 -113 -114 -201 -102 -189 6 6 47 65 92 132 44 67 90 131 102
141 11 11 42 23 67 27 26 4 152 33 280 66 249 63 324 72 341 41 6 -11 26 -96
45 -189 19 -94 55 -240 79 -324 38 -134 44 -163 39 -222 l-4 -69 -39 69 c-21
37 -46 78 -56 89 -20 24 -134 101 -323 219 -69 43 -135 85 -147 93 -13 8 -23
10 -23 5 0 -5 82 -76 182 -159 241 -197 258 -214 312 -315 l45 -86 -102 14
c-56 8 -165 25 -242 38 -76 13 -141 23 -143 21 -7 -7 332 -89 461 -111 47 -8
45 -4 300 -450 107 -187 236 -410 286 -495 51 -85 106 -184 124 -220 l32 -65
-2 -149 c-2 -82 -4 -151 -6 -153 -11 -10 -158 55 -199 89 -53 44 -148 159
-148 179 0 7 5 27 12 44 10 29 7 43 -27 131 -21 55 -52 128 -68 164 -16 36
-46 108 -66 161 -21 53 -50 117 -65 142 -25 44 -30 47 -67 47 -41 0 -266 -42
-591 -111 -179 -38 -201 -45 -475 -160 -347 -145 -404 -174 -417 -212 -10 -27
-4 -100 40 -492 25 -223 40 -251 128 -240 l52 7 23 -129 c12 -70 31 -147 43
-171 11 -24 78 -103 149 -177 71 -74 129 -138 129 -142 0 -18 61 -343 81 -431
25 -110 46 -140 131 -183 70 -35 77 -34 238 40 l105 48 3 -25 c6 -40 -26 -108
-65 -143 -45 -39 -168 -99 -204 -99 -15 0 -58 9 -95 21 -111 34 -178 123 -259
343 -70 192 -98 235 -180 279 -38 21 -54 22 -264 22 l-224 0 -84 200 c-103
248 -214 523 -289 720 -84 224 -191 470 -325 749 -157 328 -151 309 -194 636
l-14 105 4 -185 c3 -143 9 -203 24 -262 11 -43 91 -247 177 -455 145 -350 217
-528 404 -1003 40 -102 104 -252 142 -335 38 -82 72 -155 74 -162 4 -8 -25
-12 -98 -15 -129 -4 -172 -22 -207 -89 l-25 -46 -82 -11 c-50 -6 -129 -29
-203 -56 -68 -25 -124 -46 -127 -46 -2 0 -4 125 -4 278 0 152 -5 356 -11 452
-5 96 -14 321 -18 500 -10 371 -8 365 -125 660 l-58 145 11 141 c14 174 14
363 1 598 -7 119 -7 215 0 290 l10 111 91 190 c180 373 278 571 314 628 32 51
47 63 115 97 104 53 243 135 259 154 7 8 18 13 25 10 8 -3 123 4 257 16 325
28 559 37 559 21 0 -7 4 -9 10 -6 22 14 88 -41 305 -254 126 -124 221 -215
209 -201 -35 43 -301 334 -322 353 l-20 18 35 71 c34 70 35 71 54 51 18 -17
18 -22 6 -59z m8981 -327 c-8 -56 -16 -87 -24 -87 -33 0 -39 10 -36 66 3 48 8
60 35 84 18 16 33 27 34 26 2 -1 -3 -41 -9 -89z m-2499 -27 c25 -81 124 -268
182 -344 154 -204 366 -351 641 -447 100 -34 108 -39 82 -46 -16 -4 -92 -8
-169 -8 -200 1 -302 30 -498 143 l-88 51 -23 -37 c-53 -85 -118 -204 -157
-287 -56 -120 -63 -192 -25 -284 14 -36 26 -69 26 -75 0 -6 13 -39 30 -74 73
-156 301 -321 550 -401 69 -22 140 -42 158 -46 33 -7 33 -7 15 -27 -26 -29
-173 -96 -260 -119 -144 -36 -322 -19 -455 45 -30 15 -56 22 -61 17 -12 -12
-52 -167 -73 -283 -26 -140 -24 -385 4 -506 30 -129 57 -180 117 -217 45 -28
56 -30 139 -30 80 0 98 4 151 29 121 59 294 262 410 481 20 39 38 71 40 73 1
2 62 -31 134 -72 154 -89 232 -129 284 -145 31 -11 37 -17 37 -41 0 -41 -71
-176 -133 -250 -118 -143 -308 -276 -495 -347 -197 -74 -375 -70 -615 13 -456
159 -692 439 -690 819 1 159 56 332 194 612 l81 163 -80 112 c-152 218 -201
323 -188 409 13 84 192 357 365 554 33 39 68 78 76 88 14 16 13 21 -11 52 -14
19 -30 35 -33 35 -15 0 -71 89 -71 112 0 14 14 37 33 56 55 54 342 281 351
278 5 -1 16 -26 25 -56z m2421 2 l0 -48 -36 4 c-26 3 -34 8 -30 19 3 8 6 21 6
28 0 11 40 42 58 45 1 0 2 -22 2 -48z m-8481 -89 c1 -32 5 -53 12 -53 7 0 10
17 7 45 -2 25 -2 45 0 45 10 0 62 -32 62 -38 0 -4 3 -17 6 -29 5 -18 2 -23
-13 -23 -10 0 -42 -6 -70 -13 l-51 -14 -6 61 c-4 34 -10 77 -13 96 l-6 35 36
-30 c32 -27 36 -35 36 -82z m8401 72 c0 -8 -7 -15 -15 -15 -9 0 -12 6 -9 15 4
8 10 15 15 15 5 0 9 -7 9 -15z m-8276 -100 c3 -9 0 -15 -9 -15 -8 0 -15 7 -15
15 0 8 4 15 9 15 5 0 11 -7 15 -15z m1577 -45 c108 -10 206 -23 216 -29 32
-17 43 -58 51 -196 l7 -130 27 50 c53 101 97 130 221 146 130 17 229 -2 293
-54 36 -30 93 -134 109 -200 7 -27 9 -27 59 -21 28 4 52 7 52 8 1 0 -25 66
-57 146 -86 212 -80 260 36 260 82 0 359 -37 397 -53 35 -15 35 -15 42 -93 19
-217 75 -443 143 -578 51 -101 133 -230 207 -327 l65 -84 -27 -8 c-15 -5 -75
-6 -133 -3 -198 10 -338 76 -486 229 l-73 74 -89 -13 c-50 -7 -105 -20 -124
-27 l-34 -15 -6 -107 c-4 -60 -7 -363 -7 -674 0 -771 -17 -1000 -86 -1211 -33
-99 -70 -152 -126 -182 -38 -20 -57 -23 -158 -22 -159 0 -394 49 -435 90 -14
15 -13 21 14 70 62 108 71 167 86 529 8 182 19 398 25 480 28 404 39 841 24
987 -7 74 8 60 -130 116 l-52 21 -38 -57 c-51 -78 -159 -184 -215 -210 -60
-29 -142 -43 -256 -45 -73 -2 -95 1 -109 14 -15 16 -11 22 49 94 170 203 273
464 284 720 5 103 2 132 -16 199 -12 43 -29 92 -37 108 l-16 31 54 -7 c29 -4
141 -16 249 -26z m6546 -34 c-3 -8 -9 -30 -12 -49 -4 -21 -16 -39 -33 -50 -37
-22 -140 -123 -240 -234 -66 -74 -96 -99 -150 -125 -61 -30 -76 -33 -177 -36
-131 -4 -148 3 -139 59 6 36 6 36 34 22 73 -36 199 -22 281 32 62 40 143 117
218 205 78 91 116 128 171 165 41 28 54 31 47 11z m-7920 -129 c32 -24 88 -80
125 -123 166 -200 283 -279 413 -278 46 0 81 6 101 17 l32 16 7 -35 c9 -48 -4
-60 -73 -67 -78 -8 -169 6 -241 38 -50 23 -82 51 -206 180 -80 85 -161 163
-179 175 -24 14 -37 31 -41 53 -4 18 -9 40 -11 50 -8 27 9 21 73 -26z m7760
-164 c-24 -48 -40 -106 -53 -193 -9 -61 -19 -78 -75 -128 -40 -35 -50 -51 -60
-97 -7 -30 -16 -55 -21 -55 -21 0 -78 30 -78 41 0 25 43 79 105 134 36 31 70
65 75 75 6 11 21 60 35 111 19 71 32 100 57 126 17 18 33 33 35 33 2 0 -7 -21
-20 -47z m-3858 -13 c99 -13 121 -28 121 -83 0 -40 -68 -454 -130 -792 -31
-172 -80 -461 -80 -476 0 -5 47 -9 104 -9 140 0 300 -36 409 -92 22 -11 41
-17 43 -15 3 2 -2 29 -10 60 -49 186 -66 406 -73 939 -5 351 -3 430 8 444 16
20 84 15 289 -21 169 -30 234 -50 261 -78 20 -21 21 -29 15 -142 -3 -66 -9
-248 -12 -405 -7 -332 -2 -387 81 -980 73 -522 80 -592 80 -840 0 -240 -11
-316 -68 -470 l-32 -85 -40 2 c-22 1 -122 5 -222 9 -154 6 -182 9 -185 23 -2
9 -1 63 2 121 22 364 -57 713 -211 936 -99 143 -216 227 -396 285 -40 12 -75
21 -77 18 -18 -18 -29 -252 -31 -621 -1 -389 -3 -419 -20 -438 -30 -33 -88
-42 -309 -43 -240 -2 -256 2 -275 70 -47 169 63 1256 199 1973 76 399 141 679
162 691 7 5 35 11 63 14 27 3 64 7 80 8 62 8 183 6 254 -3z m3202 -77 c18 -18
25 -34 20 -46 -6 -16 -11 -15 -53 13 -50 33 -59 47 -51 79 5 21 6 21 32 2 14
-11 38 -32 52 -48z m-6955 -77 c3 -23 15 -69 25 -103 17 -55 27 -69 95 -129
72 -65 104 -107 104 -137 0 -11 -58 -37 -83 -37 -3 0 -11 25 -17 55 -10 46
-19 61 -59 97 -60 53 -66 65 -80 154 -12 80 -32 142 -62 194 l-21 35 46 -44
c33 -33 46 -54 52 -85z m679 4 c0 -19 -12 -33 -50 -57 -44 -30 -50 -31 -56
-15 -5 12 6 30 34 60 45 46 72 51 72 12z m6701 -353 c1 -1 -4 -27 -12 -57 -8
-30 -14 -62 -14 -72 0 -24 -21 -23 -48 2 -27 25 -27 32 -5 93 17 46 19 48 47
43 16 -4 31 -7 32 -9z m-7147 -99 c5 -13 17 -40 25 -61 16 -37 16 -38 -8 -62
-39 -39 -51 -32 -63 33 -6 31 -14 64 -18 73 -6 15 9 26 53 38 1 1 6 -9 11 -21z
m7681 -587 c259 -40 493 -94 593 -135 188 -79 537 -234 568 -253 30 -17 34
-24 32 -59 -4 -89 -55 -552 -65 -592 l-10 -42 -52 6 c-291 33 -617 125 -935
266 -123 54 -285 121 -360 149 -173 63 -201 76 -235 103 l-28 22 25 59 c14 33
53 134 87 225 34 91 73 186 86 212 26 51 60 81 84 73 8 -2 103 -18 210 -34z
m-8023 -83 c31 -34 45 -66 144 -321 l90 -232 -28 -22 c-30 -25 -98 -54 -238
-104 -49 -17 -193 -77 -320 -132 -126 -55 -255 -108 -285 -119 -185 -65 -558
-152 -680 -160 l-55 -3 -11 35 c-10 30 -61 490 -67 600 -3 44 -2 44 369 206
346 150 416 170 899 248 83 13 153 24 156 25 3 1 15 -9 26 -21z m7798 -631
c390 -168 746 -295 1002 -357 70 -17 142 -35 159 -41 l31 -10 -22 -124 c-12
-68 -30 -137 -40 -152 -10 -15 -53 -64 -94 -108 -125 -131 -364 -416 -355
-424 2 -2 40 31 84 74 44 43 82 76 85 74 2 -3 -9 -61 -24 -129 l-27 -125 -65
-7 c-35 -4 -104 -12 -154 -18 -128 -15 -210 -59 -253 -136 -7 -13 -34 -5 -167
46 -87 33 -160 59 -162 57 -2 -2 68 -38 156 -80 149 -71 158 -77 154 -101 -3
-13 0 -48 6 -77 6 -28 10 -54 8 -56 -4 -3 -745 180 -879 217 -41 12 -150 106
-173 150 -11 21 -12 36 -5 61 6 19 10 51 10 72 0 21 4 57 10 80 5 23 30 141
55 262 49 233 143 595 175 670 14 33 33 54 74 81 55 36 166 166 166 193 0 7 6
11 13 8 6 -3 111 -48 232 -100z m-7585 -9 c0 -26 113 -157 166 -192 41 -28 60
-48 74 -82 38 -87 188 -661 220 -837 15 -80 16 -77 -80 -141 -112 -75 -184
-90 -415 -87 -104 1 -217 3 -250 4 l-59 2 -44 115 c-153 396 -366 910 -356
860 22 -119 214 -634 322 -861 l59 -126 -41 -11 c-79 -21 -153 -110 -171 -204
-7 -35 -8 -36 -138 -87 -73 -28 -144 -51 -158 -51 -25 0 -91 41 -115 71 -10
11 -114 449 -114 476 0 4 38 -30 85 -77 47 -47 85 -81 85 -76 0 17 -228 290
-361 431 -36 39 -73 83 -84 98 -10 15 -28 83 -40 152 l-22 124 31 10 c17 6 87
24 156 41 274 68 629 195 1010 360 124 54 228 99 233 99 4 1 7 -4 7 -11z
m7020 -173 c-16 -19 -6 -19 24 0 25 17 24 15 -49 -170 -6 -16 -9 -12 -16 23
-5 24 -18 59 -29 77 l-21 34 48 25 c57 30 59 30 43 11z m-6694 -115 c3 0 1 7
-6 15 -17 21 -10 19 44 -11 70 -39 73 -43 190 -344 35 -91 83 -208 106 -260
l41 -95 -88 -84 -88 -83 -13 73 c-30 180 -68 328 -132 520 -38 113 -79 227
-90 254 l-20 48 24 -17 c14 -9 28 -16 32 -16z m6504 -643 c-61 -293 -70 -373
-45 -417 8 -14 15 -43 16 -65 2 -33 3 -35 6 -11 l5 29 41 -41 c23 -22 60 -52
81 -66 l39 -26 -29 0 c-16 -1 -53 -9 -82 -19 -48 -17 -61 -17 -127 -6 -137 24
-262 70 -295 109 -11 14 -10 23 4 59 9 23 46 119 82 212 36 94 75 194 87 223
16 41 36 65 93 113 68 57 135 128 165 176 7 12 14 21 16 19 1 -1 -24 -131 -57
-289z m-393 -249 c-65 -170 -73 -185 -84 -165 -18 32 -16 149 3 197 10 25 41
63 82 100 36 33 67 58 68 57 2 -1 -29 -87 -69 -189z m-5002 -276 c210 -201
411 -334 707 -469 265 -121 453 -173 626 -173 105 0 202 -9 202 -19 0 -3 -58
-37 -130 -74 -71 -38 -201 -118 -287 -179 -87 -61 -198 -138 -248 -171 -149
-100 -253 -185 -390 -319 l-130 -127 126 54 c164 70 327 117 518 149 162 28
216 32 225 17 4 -5 -29 -58 -72 -118 -43 -60 -100 -152 -127 -203 -45 -87 -60
-125 -132 -324 -45 -126 -66 -257 -66 -416 0 -322 80 -666 181 -774 42 -45
165 -122 234 -146 78 -27 221 -37 310 -21 167 29 337 107 420 193 31 33 60 59
65 57 4 -2 40 -23 78 -46 39 -23 134 -65 213 -94 78 -29 142 -56 142 -60 0
-23 -93 -138 -178 -222 -218 -211 -374 -274 -703 -284 -198 -6 -321 8 -458 54
-344 115 -677 461 -807 838 -25 72 -28 94 -28 225 -1 224 37 440 119 664 19
55 34 101 32 102 -8 8 -144 -136 -178 -189 -83 -129 -86 -159 -49 -675 13
-182 19 -317 13 -323 -5 -5 -29 -2 -58 7 -59 18 -372 37 -462 28 -35 -4 -65
-5 -69 -3 -3 2 -7 218 -9 479 -3 472 -16 877 -35 1165 -20 295 -68 715 -96
848 -22 107 -109 267 -200 366 -66 72 -85 101 -69 101 42 0 226 37 297 60 128
41 210 92 262 161 l41 55 31 -46 c17 -25 80 -92 139 -148z m7258 1 c68 -159
227 -370 372 -492 163 -139 311 -243 420 -296 221 -108 369 -140 513 -112 67
13 72 13 72 -3 0 -27 -75 -89 -146 -121 -328 -149 -683 -142 -1023 20 -66 31
-81 32 -81 4 0 -8 -27 -85 -61 -171 -34 -87 -63 -164 -66 -174 -4 -14 2 -16
54 -11 83 7 339 -14 457 -38 336 -68 605 -235 905 -562 51 -56 100 -117 107
-135 27 -62 26 -64 -293 -444 -184 -219 -269 -328 -348 -450 -27 -41 -58 -81
-69 -88 -11 -7 -92 -15 -200 -20 -100 -5 -287 -21 -416 -35 -129 -14 -256 -25
-281 -25 -66 0 -105 30 -161 125 -151 260 -271 395 -515 584 -126 96 -161 137
-138 159 4 4 147 7 318 7 172 0 353 4 402 9 l90 9 41 -35 c83 -69 188 -201
278 -350 l16 -28 37 43 c21 23 108 115 195 203 92 94 158 169 158 181 0 10
-15 50 -34 88 -99 206 -314 387 -561 471 -71 25 -95 28 -215 28 -152 1 -259
-22 -440 -90 -150 -57 -178 -64 -205 -54 -39 15 -33 59 18 138 82 127 116 188
219 398 99 200 205 439 243 550 l18 52 -44 51 c-63 73 -153 220 -183 300 -36
92 -67 202 -60 212 3 5 18 9 33 9 64 0 312 41 362 59 30 12 82 43 114 69 33
27 61 49 61 48 1 -1 17 -38 37 -83z m-4101 22 c9 -17 33 -91 53 -165 55 -207
102 -343 166 -478 74 -156 134 -246 231 -347 93 -98 100 -119 56 -161 -48 -45
-348 -254 -376 -261 -37 -9 -69 12 -106 69 -130 204 -380 309 -568 238 -217
-81 -370 -343 -385 -655 -12 -275 75 -556 220 -711 110 -119 215 -166 367
-168 124 -1 186 20 256 86 112 106 170 330 105 409 -14 18 -31 23 -80 27 -105
8 -112 -15 -51 -168 45 -113 47 -129 23 -159 -20 -23 -231 -101 -275 -101
-105 0 -242 191 -301 420 -53 204 -87 494 -61 520 5 5 21 11 36 14 15 2 33 8
39 12 11 6 217 37 340 50 49 6 59 4 78 -15 19 -19 21 -32 21 -161 l0 -140 57
0 c32 0 183 11 336 25 270 25 280 25 315 8 56 -27 71 -70 84 -223 12 -154 -3
-420 -28 -515 -32 -120 -116 -256 -216 -351 -229 -218 -577 -314 -941 -259
-385 58 -725 331 -879 705 -85 205 -122 417 -121 690 1 211 20 349 73 510 127
388 417 617 805 637 97 5 258 -7 299 -23 7 -3 -22 64 -64 148 -75 151 -121
273 -135 355 -10 64 9 77 137 91 113 12 274 43 348 67 25 8 63 13 85 12 32 -2
42 -7 57 -32z m-6425 -35 c75 -6 142 -6 175 0 29 6 61 11 72 12 15 3 35 -35
110 -202 128 -286 225 -470 302 -574 36 -48 63 -91 60 -94 -3 -3 -35 -18 -71
-33 -35 -15 -94 -48 -130 -73 -67 -48 -192 -182 -220 -235 -8 -17 -18 -31 -21
-31 -3 0 -34 24 -67 54 -134 115 -423 311 -559 376 -90 44 -165 53 -216 26
-132 -70 -319 -431 -412 -796 -46 -180 -39 -269 35 -426 58 -124 114 -205 204
-294 98 -97 191 -158 336 -220 225 -97 328 -112 407 -60 55 37 165 166 258
306 84 124 130 164 130 111 0 -81 90 -296 160 -385 38 -47 42 -57 36 -90 -8
-54 -71 -137 -167 -220 -170 -148 -350 -253 -462 -272 -273 -44 -853 222
-1031 474 -241 340 -360 969 -276 1460 51 297 190 557 416 778 169 165 331
248 486 248 79 0 171 -27 233 -69 22 -15 45 -30 51 -34 6 -3 0 30 -12 73 -31
105 -39 172 -25 198 10 18 15 19 43 11 18 -6 88 -14 155 -19z m9797 -361 c16
-30 46 -82 68 -117 l40 -62 -16 -68 c-54 -218 -136 -465 -203 -614 l-27 -60
-31 98 c-40 124 -83 225 -133 311 l-40 68 49 180 c27 98 48 183 46 188 -1 5
-27 -67 -56 -159 -30 -93 -56 -171 -58 -173 -3 -5 -15 10 -58 70 l-26 37 25
91 c13 50 21 89 17 87 -4 -3 -18 -42 -31 -86 l-23 -81 -79 108 c-127 171 -199
282 -215 329 -8 24 -28 58 -44 75 -16 17 -29 32 -29 33 0 1 179 -44 398 -99
l397 -102 29 -54z m-7665 188 c24 -30 82 -253 97 -377 3 -19 9 -73 15 -120 14
-123 142 -760 200 -1000 93 -382 168 -606 285 -849 71 -147 74 -154 59 -177
-21 -33 -66 -31 -159 6 -89 35 -238 73 -356 92 -132 20 -532 17 -645 -5 -247
-49 -438 -147 -582 -299 -63 -68 -108 -137 -161 -251 -76 -163 -81 -274 -17
-397 47 -89 102 -138 221 -197 79 -39 104 -47 176 -52 l83 -7 -60 -19 c-47
-16 -88 -20 -190 -19 -114 0 -140 3 -210 27 -181 60 -343 190 -408 328 -47 99
-61 165 -61 284 -1 175 46 318 145 440 198 244 641 418 1338 525 68 11 125 21
127 23 6 5 -139 744 -165 842 -7 29 -8 28 -25 -30 -76 -264 -175 -527 -253
-676 l-45 -87 -77 -7 c-172 -15 -504 -101 -623 -161 l-48 -24 0 28 c0 20 49
110 147 273 81 134 166 287 189 339 117 267 292 927 354 1335 11 77 25 156 30
177 l10 36 51 -19 c104 -40 357 -34 483 10 66 24 62 23 75 8z m6743 -185 c25
-42 103 -153 173 -247 157 -210 221 -316 285 -473 172 -416 206 -909 89 -1267
-114 -345 -436 -663 -791 -779 -437 -142 -933 60 -1199 488 -88 143 -134 280
-165 490 -32 216 -1 534 72 738 74 204 235 487 384 672 74 91 235 248 277 269
l31 17 50 -63 c60 -75 168 -179 240 -231 81 -59 73 -84 -46 -146 -85 -45 -138
-94 -201 -185 -139 -200 -218 -453 -228 -731 -9 -232 22 -403 103 -569 49
-102 99 -165 184 -230 155 -119 293 -140 439 -68 77 38 178 142 223 228 184
357 209 953 55 1288 -63 135 -131 222 -373 467 -286 291 -376 399 -316 375 71
-27 159 -39 297 -39 157 0 221 11 316 54 24 11 46 20 49 19 3 0 26 -34 52 -77z"/>
<path d="M15544 13235 c11 -29 104 -160 131 -185 25 -22 23 -19 -11 35 -72
115 -139 197 -120 150z"/>
<path d="M4423 13083 c-27 -37 -60 -86 -73 -108 -24 -40 -24 -40 -2 -21 30 26
137 184 130 191 -3 3 -28 -25 -55 -62z"/>
<path d="M15731 12715 c8 -7 280 -121 309 -129 50 -13 -24 22 -164 79 -126 52
-156 62 -145 50z"/>
<path d="M15235 12589 c25 -174 35 -267 35 -305 0 -56 -10 -96 -110 -439 -81
-275 -152 -546 -146 -553 4 -3 140 413 201 613 51 167 85 313 85 360 0 50 -50
337 -61 349 -5 5 -6 -6 -4 -25z"/>
<path d="M15504 12540 c3 -41 10 -138 16 -215 l11 -140 -66 -264 c-36 -145
-64 -269 -62 -275 7 -19 125 363 151 486 16 75 6 181 -34 383 l-20 100 4 -75z"/>
<path d="M15145 12555 c3 -16 8 -88 11 -160 6 -129 5 -131 -31 -255 -138 -467
-234 -835 -221 -847 2 -3 7 4 10 14 3 10 45 153 95 318 191 638 194 655 166
819 -9 55 -21 109 -26 120 -8 17 -8 15 -4 -9z"/>
<path d="M15630 12556 c0 -12 489 -386 505 -386 12 0 -123 109 -310 249 -177
133 -195 145 -195 137z"/>
<path d="M15585 11605 c143 -16 170 -27 364 -143 246 -149 451 -258 416 -224
-23 23 -486 307 -555 340 -74 36 -77 36 -210 39 l-135 2 120 -14z"/>
<path d="M14505 11594 c-89 -16 -307 -73 -315 -81 -10 -11 126 9 308 44 155
29 190 33 225 24 49 -12 61 -6 21 10 -44 18 -150 20 -239 3z"/>
<path d="M4491 12372 c-37 -216 -39 -298 -7 -417 36 -134 129 -420 134 -407 1
5 -27 128 -64 273 l-66 264 17 208 c10 114 15 210 13 212 -2 2 -14 -58 -27
-133z"/>
<path d="M4752 12379 c-38 -204 -38 -219 -4 -359 44 -181 248 -837 258 -828 6
6 -80 332 -149 563 -119 400 -119 397 -91 593 22 159 13 178 -14 31z"/>
<path d="M4866 12453 c-3 -10 -13 -63 -22 -118 -18 -114 -14 -172 21 -305 43
-167 240 -814 243 -799 4 23 -92 398 -169 654 -79 263 -91 350 -71 505 9 75 9
98 -2 63z"/>
<path d="M4260 11500 c-54 -20 -265 -143 -493 -288 -245 -156 -62 -68 272 131
101 60 202 117 225 127 36 17 134 33 251 43 22 2 -14 4 -80 5 -96 1 -131 -3
-175 -18z"/>
<path d="M5293 11497 c-17 -7 -35 -16 -40 -21 -5 -5 -1 -7 9 -3 54 19 94 17
264 -17 189 -37 303 -53 293 -42 -11 11 -216 64 -313 81 -103 18 -168 18 -213
2z"/>
<path d="M13966 10811 c10 -9 134 -33 446 -85 235 -40 276 -52 576 -175 119
-49 228 -92 242 -96 86 -23 -435 236 -542 270 -91 29 -225 47 -498 70 -107 8
-204 17 -214 20 -10 2 -15 0 -10 -4z"/>
<path d="M14727 10463 c-9 -16 -96 -292 -102 -327 -20 -106 38 54 90 247 21
79 25 101 12 80z"/>
<path d="M13985 10264 c173 -92 456 -214 631 -272 94 -32 347 -86 444 -96 71
-7 70 -6 -160 60 -107 30 -319 102 -470 159 -238 89 -424 157 -495 180 -11 3
12 -11 50 -31z"/>
<path d="M5915 10704 c-501 -47 -544 -55 -715 -131 -122 -54 -431 -215 -425
-221 2 -2 127 45 277 106 308 124 332 132 553 167 226 36 437 76 455 86 8 5
11 8 5 7 -5 0 -73 -6 -150 -14z"/>
<path d="M5306 10279 c30 -116 81 -269 95 -289 8 -12 9 -11 5 5 -3 11 -10 40
-16 65 -20 78 -92 295 -101 304 -5 5 3 -33 17 -85z"/>
<path d="M5955 10150 c-71 -26 -251 -92 -400 -147 -148 -55 -346 -122 -440
-148 -220 -61 -235 -66 -160 -59 112 10 360 65 480 105 66 23 199 76 295 119
175 77 384 179 365 178 -5 0 -68 -22 -140 -48z"/>
<path d="M14123 9853 c-87 -247 -189 -583 -172 -566 24 24 235 681 226 706 -1
5 -26 -58 -54 -140z"/>
<path d="M14406 9864 c-11 -27 -59 -146 -108 -264 -106 -255 -310 -782 -304
-787 6 -7 121 224 180 364 72 170 178 456 222 602 36 118 42 171 10 85z"/>
<path d="M5845 9875 c19 -102 203 -667 224 -688 6 -6 -10 57 -34 139 -64 219
-203 621 -190 549z"/>
<path d="M7920 7765 c0 -64 3 -115 8 -113 40 18 281 189 271 193 -8 2 -57 9
-109 15 -52 5 -112 13 -132 16 l-38 7 0 -118z"/>
</g>
</svg>
